<?xml version="1.0" encoding="UTF-8" standalone="no"?>
<!-- Created with Inkscape (http://www.inkscape.org/) -->

<svg
   sodipodi:docname="Douglas_College_logo_inverted.svg"
   inkscape:version="1.2.2 (732a01da63, 2022-12-09)"
   id="svg21438"
   version="1.1"
   viewBox="0 0 33.919553 35.638103"
   height="134.69519"
   width="128.19989"
   xmlns:inkscape="http://www.inkscape.org/namespaces/inkscape"
   xmlns:sodipodi="http://sodipodi.sourceforge.net/DTD/sodipodi-0.dtd"
   xmlns="http://www.w3.org/2000/svg"
   xmlns:svg="http://www.w3.org/2000/svg"
   xmlns:rdf="http://www.w3.org/1999/02/22-rdf-syntax-ns#"
   xmlns:cc="http://creativecommons.org/ns#"
   xmlns:dc="http://purl.org/dc/elements/1.1/">
  <defs
     id="defs21432">
    <clipPath
       id="clipPath21242"
       clipPathUnits="userSpaceOnUse">
      <path
         inkscape:connector-curvature="0"
         id="path21240"
         d="M 28.8,34.728 H 144.984 V 156.6 H 28.8 Z" />
    </clipPath>
  </defs>
  <sodipodi:namedview
     id="base"
     pagecolor="#000000"
     bordercolor="#666666"
     borderopacity="1.0"
     inkscape:pageopacity="0"
     inkscape:pageshadow="2"
     inkscape:zoom="3.9866803"
     inkscape:cx="63.461321"
     inkscape:cy="66.973015"
     inkscape:document-units="mm"
     inkscape:current-layer="layer1"
     showgrid="false"
     fit-margin-top="0"
     fit-margin-left="0"
     fit-margin-right="0"
     fit-margin-bottom="0"
     units="px"
     inkscape:window-width="3440"
     inkscape:window-height="1369"
     inkscape:window-x="-8"
     inkscape:window-y="-8"
     inkscape:window-maximized="1"
     inkscape:showpageshadow="2"
     inkscape:pagecheckerboard="0"
     inkscape:deskcolor="#d1d1d1" />
  <metadata
     id="metadata21435">
    <rdf:RDF>
      <cc:Work
         rdf:about="">
        <dc:format>image/svg+xml</dc:format>
        <dc:type
           rdf:resource="http://purl.org/dc/dcmitype/StillImage" />
      </cc:Work>
    </rdf:RDF>
  </metadata>
  <g
     inkscape:label="Layer 1"
     inkscape:groupmode="layer"
     id="layer1"
     transform="translate(-46.672523,-114.25104)">
    <g
       id="g21565"
       transform="translate(0.13229063,-0.13228854)">
      <path
         inkscape:connector-curvature="0"
         id="path21248"
         style="fill:#ffffff;fill-opacity:1;fill-rule:nonzero;stroke:none;stroke-width:0.06027859"
         d="m 51.982524,124.40857 c 0.900526,0 1.62555,-0.288 2.172477,-0.86388 0.547931,-0.57791 0.82166,-1.46574 0.82166,-2.6617 0,-0.60456 -0.07515,-1.12831 -0.225619,-1.57204 -0.148818,-0.44323 -0.361509,-0.80559 -0.626796,-1.09273 -0.268593,-0.28418 -0.586183,-0.49432 -0.957019,-0.62949 -0.362512,-0.13462 -0.774257,-0.20202 -1.216049,-0.20202 h -2.236939 v 7.02186 z m -5.310001,-9.626 h 5.13757 c 0.964811,0 1.831452,0.13615 2.615509,0.40637 0.781872,0.26836 1.445976,0.65904 1.996976,1.17866 0.546042,0.51827 0.967999,1.14813 1.261031,1.8942 0.297814,0.74404 0.444625,1.59069 0.444625,2.53877 0,0.92784 -0.13896,1.77363 -0.412098,2.53115 -0.275855,0.76263 -0.680693,1.41508 -1.215636,1.95988 -0.541201,0.54448 -1.207844,0.96846 -2.006953,1.27 -0.794505,0.30179 -1.71398,0.45265 -2.758719,0.45265 h -5.062305 z" />
      <path
         inkscape:connector-curvature="0"
         id="path21254"
         style="fill:#ffffff;fill-opacity:1;fill-rule:nonzero;stroke:none;stroke-width:0.06027859"
         d="m 63.38055,124.46587 c 0.474318,0 0.911033,-0.0778 1.293144,-0.23537 0.38707,-0.15475 0.721365,-0.38778 1.000643,-0.69394 0.280577,-0.30899 0.497281,-0.68729 0.648343,-1.14148 0.147225,-0.45395 0.220837,-0.97185 0.220837,-1.55358 0,-0.59262 -0.07361,-1.11452 -0.230341,-1.56108 -0.154486,-0.44939 -0.376031,-0.82344 -0.661861,-1.12425 -0.28406,-0.30179 -0.622606,-0.53002 -1.012804,-0.68193 -0.399289,-0.14964 -0.827326,-0.22701 -1.291255,-0.22701 -0.463869,0 -0.891198,0.0774 -1.280924,0.22701 -0.387483,0.15191 -0.722959,0.38014 -0.998695,0.68193 -0.282171,0.30081 -0.497872,0.67486 -0.652416,1.12425 -0.156316,0.44656 -0.232466,0.96846 -0.232466,1.56108 0,1.19676 0.291497,2.1009 0.877031,2.71081 0.583349,0.60949 1.355481,0.91356 2.320764,0.91356 m -0.09185,2.79908 c -0.953241,0 -1.814746,-0.16084 -2.589948,-0.48602 -0.768413,-0.32296 -1.426083,-0.76995 -1.968169,-1.34152 -0.539784,-0.57182 -0.960207,-1.24945 -1.254774,-2.03116 -0.295157,-0.7814 -0.44616,-1.63063 -0.44616,-2.54893 0,-0.91682 0.169302,-1.75885 0.506608,-2.53268 0.334945,-0.77254 0.790373,-1.43976 1.365045,-2.00721 0.576088,-0.56333 1.244266,-1.00564 2.010081,-1.32676 0.766288,-0.31656 1.582812,-0.47505 2.452051,-0.47505 0.869121,0 1.683637,0.14704 2.454589,0.44551 0.763631,0.29465 1.432281,0.71406 2.006953,1.25178 0.572074,0.54018 1.032106,1.1959 1.369294,1.96462 0.337779,0.77235 0.502831,1.63402 0.502831,2.5818 0,0.92907 -0.150354,1.78969 -0.462807,2.5818 -0.317649,0.79291 -0.749641,1.48248 -1.309024,2.06316 -0.558261,0.58382 -1.232814,1.03771 -2.015217,1.36775 -0.788307,0.32955 -1.664866,0.49291 -2.621353,0.49291" />
      <path
         inkscape:connector-curvature="0"
         id="path21260"
         style="fill:#ffffff;fill-opacity:1;fill-rule:nonzero;stroke:none;stroke-width:0.06027859"
         d="m 63.387929,138.27353 c -1.842786,0 -3.234572,-0.44311 -4.183149,-1.32657 -0.948636,-0.8845 -1.419295,-2.21612 -1.419295,-3.99774 v -7.20017 h 3.038647 v 7.02302 c 0,0.48552 0.04179,0.89811 0.118653,1.23769 0.07792,0.33915 0.21576,0.62186 0.40903,0.84142 0.199939,0.22269 0.462157,0.37971 0.790845,0.47672 0.333232,0.0979 0.751116,0.1447 1.258905,0.1447 0.498226,0 0.911978,-0.0468 1.241669,-0.1447 0.332642,-0.097 0.593916,-0.25403 0.791435,-0.47672 0.196929,-0.21956 0.331875,-0.50227 0.410977,-0.84142 0.0791,-0.33958 0.116647,-0.75217 0.116647,-1.23769 v -7.02302 h 3.044431 v 7.20017 c 0,0.9282 -0.130636,1.72826 -0.404366,2.40459 -0.253835,0.67326 -0.635297,1.22575 -1.114868,1.65852 -0.489017,0.43092 -1.077207,0.7497 -1.772244,0.9543 -0.692144,0.20423 -1.47201,0.3069 -2.327317,0.3069" />
      <path
         inkscape:connector-curvature="0"
         id="path21266"
         style="fill:#ffffff;fill-opacity:1;fill-rule:nonzero;stroke:none;stroke-width:0.06027859"
         d="m 74.231431,138.27353 c -0.949817,0 -1.813861,-0.15905 -2.58251,-0.4774 -0.769771,-0.31859 -1.428208,-0.75856 -1.976729,-1.31863 -0.553774,-0.5616 -0.977798,-1.22494 -1.272837,-1.99016 -0.298581,-0.76466 -0.45106,-1.59549 -0.45106,-2.49242 0,-0.94889 0.148405,-1.81991 0.431934,-2.61283 0.287896,-0.79322 0.714104,-1.47571 1.266343,-2.04796 0.553303,-0.57021 1.232578,-1.01757 2.033045,-1.3334 0.804364,-0.31853 1.714511,-0.47838 2.74042,-0.47838 1.417169,0 2.566984,0.2283 3.452457,0.68704 0.884882,0.45906 1.574311,1.09754 2.070884,1.91766 l -2.451283,1.61709 c -0.308263,-0.46182 -0.698992,-0.82947 -1.163924,-1.0995 -0.465404,-0.26972 -1.106369,-0.40434 -1.924427,-0.40434 -1.046747,0 -1.854829,0.32906 -2.435581,0.98761 -0.581991,0.65799 -0.868294,1.57462 -0.868294,2.75063 0,1.17645 0.292914,2.0703 0.882049,2.68749 0.591495,0.61502 1.476318,0.92322 2.656535,0.92322 0.532287,0 0.991847,-0.0937 1.365989,-0.27674 0.370895,-0.18232 0.672723,-0.39437 0.903536,-0.63836 0.234178,-0.24405 0.4023,-0.49192 0.50773,-0.74564 0.102361,-0.25218 0.154663,-0.45592 0.154663,-0.60678 v -0.0641 h -2.51368 v -2.46146 h 5.270805 v 7.18749 h -1.53352 l -0.478805,-1.57025 c -0.217708,0.28037 -0.458202,0.53538 -0.721837,0.76798 -0.263162,0.23205 -0.557848,0.42853 -0.885827,0.59213 -0.322666,0.1601 -0.694505,0.28573 -1.101705,0.37024 -0.408084,0.0873 -0.867822,0.12981 -1.374371,0.12981" />
      <path
         inkscape:connector-curvature="0"
         id="path21272"
         style="fill:#ffffff;fill-opacity:1;fill-rule:nonzero;stroke:none;stroke-width:0.06027859"
         d="m 49.727969,137.14855 h 3.044313 v 9.70854 h 6.202617 v 2.52456 h -9.24693 z" />
      <path
         inkscape:connector-curvature="0"
         id="path21278"
         style="fill:#ffffff;fill-opacity:1;fill-rule:nonzero;stroke:none;stroke-width:0.06027859"
         d="m 63.236572,140.03817 -1.59692,4.69242 h 3.196319 z m -3.180322,9.33584 h -2.949273 l 4.439051,-12.23463 h 3.631618 l 4.467209,12.23463 h -3.210842 l -0.77532,-2.28099 h -4.825057 z" />
      <path
         inkscape:connector-curvature="0"
         id="path21284"
         style="fill:#ffffff;fill-opacity:1;fill-rule:nonzero;stroke:none;stroke-width:0.06027859"
         d="m 74.0224,149.88914 c -0.735473,0 -1.401939,-0.0567 -2.002821,-0.16761 -0.593207,-0.11547 -1.143617,-0.27359 -1.634759,-0.47838 -0.492264,-0.20798 -0.931045,-0.45518 -1.322306,-0.74509 -0.385003,-0.29083 -0.736949,-0.61545 -1.062035,-0.9695 l 2.003293,-1.86164 c 0.411272,0.50534 0.953476,0.91601 1.610556,1.22876 0.65767,0.31545 1.441372,0.46853 2.362323,0.46853 0.840903,0 1.434524,-0.0893 1.784463,-0.27261 0.350411,-0.1849 0.530457,-0.4758 0.530457,-0.87459 0,-0.2147 -0.04262,-0.3943 -0.127331,-0.53384 -0.08099,-0.13991 -0.230341,-0.25594 -0.439372,-0.3495 -0.213753,-0.0908 -0.495746,-0.17013 -0.846334,-0.23543 -0.354484,-0.0621 -0.792321,-0.13388 -1.319885,-0.20916 -0.579985,-0.0871 -1.171776,-0.19382 -1.777734,-0.32351 -0.608497,-0.12969 -1.155069,-0.3346 -1.651583,-0.61448 -0.494802,-0.28221 -0.90761,-0.65577 -1.22396,-1.12529 -0.312335,-0.46786 -0.469005,-1.08732 -0.469005,-1.8529 0,-0.65812 0.119598,-1.22661 0.368534,-1.70653 0.235181,-0.47992 0.576324,-0.87755 1.024905,-1.18906 0.435357,-0.31472 0.964515,-0.54911 1.589305,-0.70385 0.615226,-0.15634 1.313097,-0.23636 2.077082,-0.23636 1.314573,0 2.398568,0.1809 3.252695,0.54246 0.853418,0.36389 1.584819,0.88148 2.196385,1.56299 l -1.877438,1.86151 c -0.135418,-0.17369 -0.305075,-0.3509 -0.505546,-0.53476 -0.200589,-0.18373 -0.444979,-0.34715 -0.7314,-0.48521 -0.284119,-0.14083 -0.611684,-0.25735 -0.9752,-0.34654 -0.365169,-0.096 -0.784175,-0.13825 -1.25442,-0.13825 -0.804304,0 -1.381986,0.0847 -1.729209,0.25797 -0.347578,0.17284 -0.519891,0.44988 -0.519891,0.84104 0,0.20386 0.04492,0.37479 0.132821,0.50867 0.08878,0.13621 0.244331,0.2483 0.465581,0.34094 0.223789,0.0911 0.516467,0.17099 0.887362,0.23439 0.369773,0.0663 0.827208,0.13006 1.387181,0.19592 0.60401,0.0721 1.202649,0.18305 1.808607,0.32247 0.603952,0.13941 1.14775,0.3562 1.626613,0.64839 0.484708,0.29009 0.87408,0.6719 1.17514,1.13939 0.299526,0.46952 0.449525,1.07506 0.449525,1.82015 0,1.34971 -0.423079,2.34772 -1.273663,3.00436 -0.847398,0.64992 -2.178263,0.97615 -3.988936,0.97615" />
    </g>
  </g>
</svg>
